# xmcd
#
# Track frame offsets:
#	150
#	19735
#	36121
#	47866
#	69760
#	83843
#	96940
#	108796
#	127596
#	141916
#	154379
#	172468
#	189428
#	204283
#	210489
#
# Disc length: 2974 seconds
#
# Revision: 0
# Processed by: cddbd v1.5.2PL0 Copyright (c) Steve Scherf et al.
# Submitted via: EasyCDDAExtractor 16.0.6.1
#
DISCID=c70b9c0f
DTITLE=Συλλογικός δίσκος - Όλα τα αγαπημένα τραγούδια-Ηλ. Ανδριόπουλος 1
DYEAR=2010
DGENRE=Ποικίλη
TTITLE0=Μπέλλου Σωτηρία - Μην κλαις [Μιχάλης Μπουρμπούλης]
TTITLE1=Καλογιάνης Αντώνης-Πρωτοψάλτη Άλκηστις - Θα σε ξανάβρω στους μπαξέδες 
TTITLE1=[Μάνος Ελευθερίου]
TTITLE2=Πρωτοψάλτη Άλκηστις - Ο έρωτας [Οδυσσέας Ελύτης]
TTITLE3=Μητσιάς Μανώλης - Στου ονείρου τα μπαλκόνια [Νίκος Γκάτσος]
TTITLE4=Δημητριάδη Μαρία - Τα λόγια της αγάπης [Μάνος Ελευθερίου]
TTITLE5=Καλογιάνης Αντώνης-Πρωτοψάλτη Άλκηστις - Χτυπώ την πόρτα του Θεού [Μάν
TTITLE5=ος Ελευθερίου]
TTITLE6=Μπέλλου Σωτηρία - Τα ρεμπέτικά μας μέσ' στη στράτα [Μιχ. Μπουρμπούλης]
TTITLE7=Βενετσάνου Νένα - Την αφρούρητη νυχτιά [Οδυσσέας Ελύτης]
TTITLE8=Μπέλλου Σωτηρία - Καισαριανή [Μιχάλης Μπουρμπούλης]
TTITLE9=Πρωτοψάλτη Άλκηστις - Πουλιά στα χίλια χρώματα [Οδυσσέας Ελύτης]
TTITLE10=Βενετσάνου Νένα - Η ώρα ξεχάστηκε [Οδυσσέας Ελύτης]
TTITLE11=Χριστογιαννόπουλος Γιάννης-Ορχ. ΕΡΤ - Σταφυλοφόρους ρίζας [Ανδρέας Κά
TTITLE11=λβος]
TTITLE12=Μπέλλου Σωτηρία - Ακροναυπλία [Μιχάλης Μπουρμπούλης]
TTITLE13=Ανδριόπουλος Ηλίας - Όλα τα σύννεφα [Οδυσσέας Ελύτης]
TTITLE14=Άνευ ερμηνευτού - Αμέριμνος άνεμος [οργ., Ηλίας Ανδριόπουλος]
EXTD=
EXTT0=
EXTT1=
EXTT2=
EXTT3=
EXTT4=
EXTT5=
EXTT6=
EXTT7=
EXTT8=
EXTT9=
EXTT10=
EXTT11=
EXTT12=
EXTT13=
EXTT14=
PLAYORDER=
